<mxfile host="app.diagrams.net" modified="2023-09-27T00:25:51.982Z" agent="Mozilla/5.0 (Windows NT 10.0; Win64; x64) AppleWebKit/537.36 (KHTML, like Gecko) Chrome/117.0.0.0 Safari/537.36" etag="rHFE380eQY5M-RhkBN6u" version="21.8.2" type="github">
  <diagram name="Página-1" id="G2qroPw5ftLIIh0MB2Pz">
    <mxGraphModel dx="2402" dy="1821" grid="1" gridSize="10" guides="1" tooltips="1" connect="1" arrows="1" fold="1" page="1" pageScale="1" pageWidth="827" pageHeight="1169" math="0" shadow="0">
      <root>
        <mxCell id="0" />
        <mxCell id="1" parent="0" />
        <mxCell id="r3X7H7_riUT9f5Sav2yK-5" style="edgeStyle=orthogonalEdgeStyle;rounded=0;orthogonalLoop=1;jettySize=auto;html=1;" parent="1" source="r3X7H7_riUT9f5Sav2yK-1" target="r3X7H7_riUT9f5Sav2yK-6" edge="1">
          <mxGeometry relative="1" as="geometry">
            <mxPoint x="190" y="100" as="targetPoint" />
          </mxGeometry>
        </mxCell>
        <mxCell id="r3X7H7_riUT9f5Sav2yK-7" style="edgeStyle=orthogonalEdgeStyle;rounded=0;orthogonalLoop=1;jettySize=auto;html=1;" parent="1" source="r3X7H7_riUT9f5Sav2yK-1" target="r3X7H7_riUT9f5Sav2yK-8" edge="1">
          <mxGeometry relative="1" as="geometry">
            <mxPoint x="180" y="260" as="targetPoint" />
          </mxGeometry>
        </mxCell>
        <mxCell id="r3X7H7_riUT9f5Sav2yK-9" style="edgeStyle=orthogonalEdgeStyle;rounded=0;orthogonalLoop=1;jettySize=auto;html=1;" parent="1" source="r3X7H7_riUT9f5Sav2yK-1" target="r3X7H7_riUT9f5Sav2yK-10" edge="1">
          <mxGeometry relative="1" as="geometry">
            <mxPoint x="280" y="190" as="targetPoint" />
          </mxGeometry>
        </mxCell>
        <mxCell id="r3X7H7_riUT9f5Sav2yK-11" style="edgeStyle=orthogonalEdgeStyle;rounded=0;orthogonalLoop=1;jettySize=auto;html=1;" parent="1" source="r3X7H7_riUT9f5Sav2yK-1" target="r3X7H7_riUT9f5Sav2yK-12" edge="1">
          <mxGeometry relative="1" as="geometry">
            <mxPoint x="70" y="280" as="targetPoint" />
          </mxGeometry>
        </mxCell>
        <mxCell id="r3X7H7_riUT9f5Sav2yK-1" value="Requisitos" style="rounded=0;whiteSpace=wrap;html=1;" parent="1" vertex="1">
          <mxGeometry x="-160" y="150" width="120" height="40" as="geometry" />
        </mxCell>
        <mxCell id="r3X7H7_riUT9f5Sav2yK-6" value=" Documentação detalhada dos requisitos do sistema" style="ellipse;whiteSpace=wrap;html=1;" parent="1" vertex="1">
          <mxGeometry x="-50" y="-130" width="110" height="80" as="geometry" />
        </mxCell>
        <mxCell id="r3X7H7_riUT9f5Sav2yK-8" value="Requisitos funcionais descrevem as funções do software" style="ellipse;whiteSpace=wrap;html=1;" parent="1" vertex="1">
          <mxGeometry x="-180" y="470" width="130" height="80" as="geometry" />
        </mxCell>
        <mxCell id="r3X7H7_riUT9f5Sav2yK-10" value="Requisitos não funcionais especificam características de desempenho e qualidade" style="ellipse;whiteSpace=wrap;html=1;" parent="1" vertex="1">
          <mxGeometry x="-340" y="450" width="160" height="90" as="geometry" />
        </mxCell>
        <mxCell id="r3X7H7_riUT9f5Sav2yK-12" value="Iterações frequentes com o cliente para validar e ajustar os requisitos" style="ellipse;whiteSpace=wrap;html=1;" parent="1" vertex="1">
          <mxGeometry x="-270" y="-130" width="160" height="100" as="geometry" />
        </mxCell>
        <mxCell id="r3X7H7_riUT9f5Sav2yK-15" style="edgeStyle=orthogonalEdgeStyle;rounded=0;orthogonalLoop=1;jettySize=auto;html=1;exitX=0.25;exitY=0;exitDx=0;exitDy=0;" parent="1" source="r3X7H7_riUT9f5Sav2yK-14" target="r3X7H7_riUT9f5Sav2yK-16" edge="1">
          <mxGeometry relative="1" as="geometry">
            <mxPoint x="300" y="90" as="targetPoint" />
          </mxGeometry>
        </mxCell>
        <mxCell id="r3X7H7_riUT9f5Sav2yK-17" style="edgeStyle=orthogonalEdgeStyle;rounded=0;orthogonalLoop=1;jettySize=auto;html=1;exitX=0.25;exitY=1;exitDx=0;exitDy=0;" parent="1" source="r3X7H7_riUT9f5Sav2yK-14" target="r3X7H7_riUT9f5Sav2yK-21" edge="1">
          <mxGeometry relative="1" as="geometry">
            <mxPoint x="280" y="240" as="targetPoint" />
          </mxGeometry>
        </mxCell>
        <mxCell id="r3X7H7_riUT9f5Sav2yK-22" style="edgeStyle=orthogonalEdgeStyle;rounded=0;orthogonalLoop=1;jettySize=auto;html=1;exitX=0.75;exitY=0;exitDx=0;exitDy=0;" parent="1" source="r3X7H7_riUT9f5Sav2yK-14" target="r3X7H7_riUT9f5Sav2yK-23" edge="1">
          <mxGeometry relative="1" as="geometry">
            <mxPoint x="410" y="90" as="targetPoint" />
          </mxGeometry>
        </mxCell>
        <mxCell id="r3X7H7_riUT9f5Sav2yK-24" style="edgeStyle=orthogonalEdgeStyle;rounded=0;orthogonalLoop=1;jettySize=auto;html=1;exitX=0.75;exitY=1;exitDx=0;exitDy=0;" parent="1" source="r3X7H7_riUT9f5Sav2yK-14" target="r3X7H7_riUT9f5Sav2yK-25" edge="1">
          <mxGeometry relative="1" as="geometry">
            <mxPoint x="360" y="260" as="targetPoint" />
          </mxGeometry>
        </mxCell>
        <mxCell id="r3X7H7_riUT9f5Sav2yK-14" value="Planejamento" style="rounded=0;whiteSpace=wrap;html=1;" parent="1" vertex="1">
          <mxGeometry x="80" y="145" width="110" height="50" as="geometry" />
        </mxCell>
        <mxCell id="r3X7H7_riUT9f5Sav2yK-16" value="Definição de prazos e marcos do projeto" style="ellipse;whiteSpace=wrap;html=1;" parent="1" vertex="1">
          <mxGeometry x="100" y="-140" width="120" height="80" as="geometry" />
        </mxCell>
        <mxCell id="r3X7H7_riUT9f5Sav2yK-21" value="Alocar recursos e definir equipes de desenvolvimento" style="ellipse;whiteSpace=wrap;html=1;" parent="1" vertex="1">
          <mxGeometry x="-20" y="470" width="110" height="70" as="geometry" />
        </mxCell>
        <mxCell id="r3X7H7_riUT9f5Sav2yK-23" value="Estimar custos e definir orçamento" style="ellipse;whiteSpace=wrap;html=1;" parent="1" vertex="1">
          <mxGeometry x="270" y="-140" width="120" height="80" as="geometry" />
        </mxCell>
        <mxCell id="r3X7H7_riUT9f5Sav2yK-25" value=" Criar um plano de desenvolvimento, incluindo sprints e tarefas" style="ellipse;whiteSpace=wrap;html=1;" parent="1" vertex="1">
          <mxGeometry x="130" y="470" width="120" height="80" as="geometry" />
        </mxCell>
        <mxCell id="r3X7H7_riUT9f5Sav2yK-28" style="edgeStyle=orthogonalEdgeStyle;rounded=0;orthogonalLoop=1;jettySize=auto;html=1;exitX=0.75;exitY=0;exitDx=0;exitDy=0;" parent="1" source="r3X7H7_riUT9f5Sav2yK-27" target="r3X7H7_riUT9f5Sav2yK-29" edge="1">
          <mxGeometry relative="1" as="geometry">
            <mxPoint x="610" y="110" as="targetPoint" />
          </mxGeometry>
        </mxCell>
        <mxCell id="r3X7H7_riUT9f5Sav2yK-30" style="edgeStyle=orthogonalEdgeStyle;rounded=0;orthogonalLoop=1;jettySize=auto;html=1;exitX=0.25;exitY=1;exitDx=0;exitDy=0;" parent="1" source="r3X7H7_riUT9f5Sav2yK-27" target="r3X7H7_riUT9f5Sav2yK-31" edge="1">
          <mxGeometry relative="1" as="geometry">
            <mxPoint x="510" y="300" as="targetPoint" />
          </mxGeometry>
        </mxCell>
        <mxCell id="r3X7H7_riUT9f5Sav2yK-32" style="edgeStyle=orthogonalEdgeStyle;rounded=0;orthogonalLoop=1;jettySize=auto;html=1;exitX=1;exitY=1;exitDx=0;exitDy=0;" parent="1" source="r3X7H7_riUT9f5Sav2yK-27" target="r3X7H7_riUT9f5Sav2yK-33" edge="1">
          <mxGeometry relative="1" as="geometry">
            <mxPoint x="620" y="260" as="targetPoint" />
          </mxGeometry>
        </mxCell>
        <mxCell id="r3X7H7_riUT9f5Sav2yK-34" style="edgeStyle=orthogonalEdgeStyle;rounded=0;orthogonalLoop=1;jettySize=auto;html=1;exitX=0.25;exitY=0;exitDx=0;exitDy=0;" parent="1" source="r3X7H7_riUT9f5Sav2yK-27" target="r3X7H7_riUT9f5Sav2yK-35" edge="1">
          <mxGeometry relative="1" as="geometry">
            <mxPoint x="530" y="110" as="targetPoint" />
          </mxGeometry>
        </mxCell>
        <mxCell id="r3X7H7_riUT9f5Sav2yK-27" value="Design" style="rounded=0;whiteSpace=wrap;html=1;" parent="1" vertex="1">
          <mxGeometry x="320" y="145" width="100" height="50" as="geometry" />
        </mxCell>
        <mxCell id="r3X7H7_riUT9f5Sav2yK-29" value="Arquitetura do software é definida nesta fase" style="ellipse;whiteSpace=wrap;html=1;" parent="1" vertex="1">
          <mxGeometry x="480" y="-115" width="110" height="70" as="geometry" />
        </mxCell>
        <mxCell id="r3X7H7_riUT9f5Sav2yK-31" value="Design de interface do usuário (UI) e experiência do usuário (UX)" style="ellipse;whiteSpace=wrap;html=1;" parent="1" vertex="1">
          <mxGeometry x="274" y="490" width="140" height="90" as="geometry" />
        </mxCell>
        <mxCell id="r3X7H7_riUT9f5Sav2yK-33" value="Decisões de tecnologia e escolha de linguagens de programação" style="ellipse;whiteSpace=wrap;html=1;" parent="1" vertex="1">
          <mxGeometry x="440" y="505" width="120" height="80" as="geometry" />
        </mxCell>
        <mxCell id="r3X7H7_riUT9f5Sav2yK-35" value="Prototipagem para visualizar o design antes da implementação" style="ellipse;whiteSpace=wrap;html=1;" parent="1" vertex="1">
          <mxGeometry x="400" y="-200" width="120" height="80" as="geometry" />
        </mxCell>
        <mxCell id="r3X7H7_riUT9f5Sav2yK-41" value="" style="shape=flexArrow;endArrow=classic;html=1;rounded=0;entryX=0;entryY=0.5;entryDx=0;entryDy=0;width=16;endSize=5.74;exitX=1;exitY=0.5;exitDx=0;exitDy=0;" parent="1" source="r3X7H7_riUT9f5Sav2yK-1" target="r3X7H7_riUT9f5Sav2yK-14" edge="1">
          <mxGeometry width="50" height="50" relative="1" as="geometry">
            <mxPoint x="200" y="170" as="sourcePoint" />
            <mxPoint x="250" y="120" as="targetPoint" />
          </mxGeometry>
        </mxCell>
        <mxCell id="r3X7H7_riUT9f5Sav2yK-42" value="" style="shape=flexArrow;endArrow=classic;html=1;rounded=0;exitX=1;exitY=0.5;exitDx=0;exitDy=0;entryX=0;entryY=0.5;entryDx=0;entryDy=0;" parent="1" source="r3X7H7_riUT9f5Sav2yK-14" target="r3X7H7_riUT9f5Sav2yK-27" edge="1">
          <mxGeometry width="50" height="50" relative="1" as="geometry">
            <mxPoint x="430" y="230" as="sourcePoint" />
            <mxPoint x="480" y="180" as="targetPoint" />
          </mxGeometry>
        </mxCell>
        <mxCell id="r3X7H7_riUT9f5Sav2yK-43" value="" style="shape=flexArrow;endArrow=classic;html=1;rounded=0;exitX=1;exitY=0.5;exitDx=0;exitDy=0;width=11;endSize=9.11;entryX=0;entryY=0.5;entryDx=0;entryDy=0;" parent="1" source="r3X7H7_riUT9f5Sav2yK-27" target="r3X7H7_riUT9f5Sav2yK-44" edge="1">
          <mxGeometry width="50" height="50" relative="1" as="geometry">
            <mxPoint x="560" y="180" as="sourcePoint" />
            <mxPoint x="630" y="150" as="targetPoint" />
          </mxGeometry>
        </mxCell>
        <mxCell id="r3X7H7_riUT9f5Sav2yK-45" style="edgeStyle=orthogonalEdgeStyle;rounded=0;orthogonalLoop=1;jettySize=auto;html=1;entryX=0;entryY=0;entryDx=0;entryDy=0;exitX=1.003;exitY=0.138;exitDx=0;exitDy=0;exitPerimeter=0;" parent="1" source="r3X7H7_riUT9f5Sav2yK-44" target="r3X7H7_riUT9f5Sav2yK-47" edge="1">
          <mxGeometry relative="1" as="geometry">
            <mxPoint x="850" y="140" as="targetPoint" />
            <mxPoint x="740" y="155" as="sourcePoint" />
          </mxGeometry>
        </mxCell>
        <mxCell id="r3X7H7_riUT9f5Sav2yK-48" style="edgeStyle=orthogonalEdgeStyle;rounded=0;orthogonalLoop=1;jettySize=auto;html=1;exitX=0.5;exitY=1;exitDx=0;exitDy=0;" parent="1" source="r3X7H7_riUT9f5Sav2yK-44" target="r3X7H7_riUT9f5Sav2yK-49" edge="1">
          <mxGeometry relative="1" as="geometry">
            <mxPoint x="680" y="250" as="targetPoint" />
          </mxGeometry>
        </mxCell>
        <mxCell id="r3X7H7_riUT9f5Sav2yK-50" style="edgeStyle=orthogonalEdgeStyle;rounded=0;orthogonalLoop=1;jettySize=auto;html=1;exitX=1;exitY=1;exitDx=0;exitDy=0;entryX=1;entryY=0;entryDx=0;entryDy=0;" parent="1" source="r3X7H7_riUT9f5Sav2yK-44" target="r3X7H7_riUT9f5Sav2yK-51" edge="1">
          <mxGeometry relative="1" as="geometry">
            <mxPoint x="970" y="380" as="targetPoint" />
            <mxPoint x="760" y="190" as="sourcePoint" />
            <Array as="points">
              <mxPoint x="710" y="190" />
              <mxPoint x="750" y="190" />
              <mxPoint x="750" y="195" />
              <mxPoint x="970" y="195" />
              <mxPoint x="970" y="412" />
            </Array>
          </mxGeometry>
        </mxCell>
        <mxCell id="r3X7H7_riUT9f5Sav2yK-52" style="edgeStyle=orthogonalEdgeStyle;rounded=0;orthogonalLoop=1;jettySize=auto;html=1;exitX=0.75;exitY=0;exitDx=0;exitDy=0;" parent="1" source="r3X7H7_riUT9f5Sav2yK-44" target="r3X7H7_riUT9f5Sav2yK-53" edge="1">
          <mxGeometry relative="1" as="geometry">
            <mxPoint x="720" y="110" as="targetPoint" />
          </mxGeometry>
        </mxCell>
        <mxCell id="r3X7H7_riUT9f5Sav2yK-44" value="Desenvolvimento" style="rounded=0;whiteSpace=wrap;html=1;" parent="1" vertex="1">
          <mxGeometry x="610" y="140" width="100" height="60" as="geometry" />
        </mxCell>
        <mxCell id="r3X7H7_riUT9f5Sav2yK-47" value="Codificação e implementação do software" style="ellipse;whiteSpace=wrap;html=1;" parent="1" vertex="1">
          <mxGeometry x="750" y="-165" width="110" height="70" as="geometry" />
        </mxCell>
        <mxCell id="r3X7H7_riUT9f5Sav2yK-49" value="Testes unitários para garantir que partes individuais funcionem corretamente" style="ellipse;whiteSpace=wrap;html=1;" parent="1" vertex="1">
          <mxGeometry x="570" y="495" width="150" height="90" as="geometry" />
        </mxCell>
        <mxCell id="r3X7H7_riUT9f5Sav2yK-51" value="Controle de versão e colaboração em equipe" style="ellipse;whiteSpace=wrap;html=1;" parent="1" vertex="1">
          <mxGeometry x="745" y="505" width="120" height="80" as="geometry" />
        </mxCell>
        <mxCell id="r3X7H7_riUT9f5Sav2yK-53" value="Integração contínua para automatizar a construção e os testes" style="ellipse;whiteSpace=wrap;html=1;" parent="1" vertex="1">
          <mxGeometry x="610" y="-170" width="127" height="80" as="geometry" />
        </mxCell>
        <mxCell id="r3X7H7_riUT9f5Sav2yK-55" value="" style="shape=flexArrow;endArrow=classic;html=1;rounded=0;exitX=1;exitY=0.5;exitDx=0;exitDy=0;entryX=0;entryY=0.5;entryDx=0;entryDy=0;" parent="1" source="r3X7H7_riUT9f5Sav2yK-44" target="r3X7H7_riUT9f5Sav2yK-56" edge="1">
          <mxGeometry width="50" height="50" relative="1" as="geometry">
            <mxPoint x="720" y="170" as="sourcePoint" />
            <mxPoint x="840" y="170" as="targetPoint" />
          </mxGeometry>
        </mxCell>
        <mxCell id="r3X7H7_riUT9f5Sav2yK-57" style="edgeStyle=orthogonalEdgeStyle;rounded=0;orthogonalLoop=1;jettySize=auto;html=1;exitX=0.25;exitY=0;exitDx=0;exitDy=0;" parent="1" source="r3X7H7_riUT9f5Sav2yK-56" target="r3X7H7_riUT9f5Sav2yK-58" edge="1">
          <mxGeometry relative="1" as="geometry">
            <mxPoint x="1050" y="60" as="targetPoint" />
          </mxGeometry>
        </mxCell>
        <mxCell id="r3X7H7_riUT9f5Sav2yK-59" style="edgeStyle=orthogonalEdgeStyle;rounded=0;orthogonalLoop=1;jettySize=auto;html=1;exitX=0.75;exitY=0;exitDx=0;exitDy=0;" parent="1" source="r3X7H7_riUT9f5Sav2yK-56" target="r3X7H7_riUT9f5Sav2yK-60" edge="1">
          <mxGeometry relative="1" as="geometry">
            <mxPoint x="1160" y="-80" as="targetPoint" />
          </mxGeometry>
        </mxCell>
        <mxCell id="r3X7H7_riUT9f5Sav2yK-61" style="edgeStyle=orthogonalEdgeStyle;rounded=0;orthogonalLoop=1;jettySize=auto;html=1;exitX=0.25;exitY=1;exitDx=0;exitDy=0;" parent="1" source="r3X7H7_riUT9f5Sav2yK-56" target="r3X7H7_riUT9f5Sav2yK-62" edge="1">
          <mxGeometry relative="1" as="geometry">
            <mxPoint x="1060" y="440" as="targetPoint" />
          </mxGeometry>
        </mxCell>
        <mxCell id="r3X7H7_riUT9f5Sav2yK-63" style="edgeStyle=orthogonalEdgeStyle;rounded=0;orthogonalLoop=1;jettySize=auto;html=1;exitX=0.75;exitY=1;exitDx=0;exitDy=0;" parent="1" source="r3X7H7_riUT9f5Sav2yK-56" target="r3X7H7_riUT9f5Sav2yK-64" edge="1">
          <mxGeometry relative="1" as="geometry">
            <mxPoint x="1140" y="310" as="targetPoint" />
          </mxGeometry>
        </mxCell>
        <mxCell id="r3X7H7_riUT9f5Sav2yK-56" value="Testes" style="rounded=0;whiteSpace=wrap;html=1;" parent="1" vertex="1">
          <mxGeometry x="1040" y="140" width="80" height="60" as="geometry" />
        </mxCell>
        <mxCell id="r3X7H7_riUT9f5Sav2yK-58" value="Testes funcionais para validar os requisitos" style="ellipse;whiteSpace=wrap;html=1;" parent="1" vertex="1">
          <mxGeometry x="940" y="-160" width="110" height="70" as="geometry" />
        </mxCell>
        <mxCell id="r3X7H7_riUT9f5Sav2yK-60" value="Testes de desempenho e carga para garantir escalabilidade" style="ellipse;whiteSpace=wrap;html=1;" parent="1" vertex="1">
          <mxGeometry x="1100" y="-160" width="120" height="70" as="geometry" />
        </mxCell>
        <mxCell id="r3X7H7_riUT9f5Sav2yK-62" value=" Testes de segurança para identificar vulnerabilidades" style="ellipse;whiteSpace=wrap;html=1;" parent="1" vertex="1">
          <mxGeometry x="980" y="370" width="130" height="80" as="geometry" />
        </mxCell>
        <mxCell id="r3X7H7_riUT9f5Sav2yK-64" value="Testes de usabilidade para verificar a experiência do usuário" style="ellipse;whiteSpace=wrap;html=1;" parent="1" vertex="1">
          <mxGeometry x="1090" y="270" width="140" height="80" as="geometry" />
        </mxCell>
        <mxCell id="r3X7H7_riUT9f5Sav2yK-65" value="" style="shape=flexArrow;endArrow=classic;html=1;rounded=0;exitX=1;exitY=0.5;exitDx=0;exitDy=0;" parent="1" source="r3X7H7_riUT9f5Sav2yK-56" target="r3X7H7_riUT9f5Sav2yK-66" edge="1">
          <mxGeometry width="50" height="50" relative="1" as="geometry">
            <mxPoint x="1160" y="180" as="sourcePoint" />
            <mxPoint x="1210" y="170" as="targetPoint" />
          </mxGeometry>
        </mxCell>
        <mxCell id="r3X7H7_riUT9f5Sav2yK-67" style="edgeStyle=orthogonalEdgeStyle;rounded=0;orthogonalLoop=1;jettySize=auto;html=1;exitX=0.25;exitY=0;exitDx=0;exitDy=0;" parent="1" source="r3X7H7_riUT9f5Sav2yK-66" target="r3X7H7_riUT9f5Sav2yK-68" edge="1">
          <mxGeometry relative="1" as="geometry">
            <mxPoint x="1232" y="50" as="targetPoint" />
          </mxGeometry>
        </mxCell>
        <mxCell id="r3X7H7_riUT9f5Sav2yK-69" style="edgeStyle=orthogonalEdgeStyle;rounded=0;orthogonalLoop=1;jettySize=auto;html=1;exitX=0.25;exitY=1;exitDx=0;exitDy=0;" parent="1" source="r3X7H7_riUT9f5Sav2yK-66" target="r3X7H7_riUT9f5Sav2yK-70" edge="1">
          <mxGeometry relative="1" as="geometry">
            <mxPoint x="1280" y="370" as="targetPoint" />
          </mxGeometry>
        </mxCell>
        <mxCell id="r3X7H7_riUT9f5Sav2yK-71" style="edgeStyle=orthogonalEdgeStyle;rounded=0;orthogonalLoop=1;jettySize=auto;html=1;exitX=0.5;exitY=0;exitDx=0;exitDy=0;" parent="1" source="r3X7H7_riUT9f5Sav2yK-66" target="r3X7H7_riUT9f5Sav2yK-72" edge="1">
          <mxGeometry relative="1" as="geometry">
            <mxPoint x="1320" y="70" as="targetPoint" />
          </mxGeometry>
        </mxCell>
        <mxCell id="r3X7H7_riUT9f5Sav2yK-73" style="edgeStyle=orthogonalEdgeStyle;rounded=0;orthogonalLoop=1;jettySize=auto;html=1;exitX=0.5;exitY=1;exitDx=0;exitDy=0;" parent="1" source="r3X7H7_riUT9f5Sav2yK-66" target="r3X7H7_riUT9f5Sav2yK-74" edge="1">
          <mxGeometry relative="1" as="geometry">
            <mxPoint x="1330" y="280" as="targetPoint" />
          </mxGeometry>
        </mxCell>
        <mxCell id="r3X7H7_riUT9f5Sav2yK-66" value="Implantação" style="rounded=0;whiteSpace=wrap;html=1;" parent="1" vertex="1">
          <mxGeometry x="1210" y="150" width="89" height="40" as="geometry" />
        </mxCell>
        <mxCell id="r3X7H7_riUT9f5Sav2yK-68" value=" Preparação do ambiente de produção" style="ellipse;whiteSpace=wrap;html=1;" parent="1" vertex="1">
          <mxGeometry x="1191" y="-50" width="108" height="70" as="geometry" />
        </mxCell>
        <mxCell id="r3X7H7_riUT9f5Sav2yK-70" value="Migração de dados, se necessário" style="ellipse;whiteSpace=wrap;html=1;" parent="1" vertex="1">
          <mxGeometry x="1210" y="360" width="120" height="80" as="geometry" />
        </mxCell>
        <mxCell id="r3X7H7_riUT9f5Sav2yK-72" value="Implantação gradual ou lançamento completo" style="ellipse;whiteSpace=wrap;html=1;" parent="1" vertex="1">
          <mxGeometry x="1280" width="120" height="80" as="geometry" />
        </mxCell>
        <mxCell id="r3X7H7_riUT9f5Sav2yK-74" value="Monitoramento inicial para identificar problemas" style="ellipse;whiteSpace=wrap;html=1;" parent="1" vertex="1">
          <mxGeometry x="1280" y="280" width="130" height="80" as="geometry" />
        </mxCell>
        <mxCell id="r3X7H7_riUT9f5Sav2yK-75" value="" style="shape=flexArrow;endArrow=classic;html=1;rounded=0;exitX=1;exitY=0.5;exitDx=0;exitDy=0;" parent="1" source="r3X7H7_riUT9f5Sav2yK-66" target="r3X7H7_riUT9f5Sav2yK-76" edge="1">
          <mxGeometry width="50" height="50" relative="1" as="geometry">
            <mxPoint x="1339" y="180" as="sourcePoint" />
            <mxPoint x="1389" y="130" as="targetPoint" />
          </mxGeometry>
        </mxCell>
        <mxCell id="r3X7H7_riUT9f5Sav2yK-77" style="edgeStyle=orthogonalEdgeStyle;rounded=0;orthogonalLoop=1;jettySize=auto;html=1;exitX=0;exitY=0;exitDx=0;exitDy=0;" parent="1" source="r3X7H7_riUT9f5Sav2yK-76" target="r3X7H7_riUT9f5Sav2yK-78" edge="1">
          <mxGeometry relative="1" as="geometry">
            <mxPoint x="1450" y="80" as="targetPoint" />
          </mxGeometry>
        </mxCell>
        <mxCell id="r3X7H7_riUT9f5Sav2yK-79" style="edgeStyle=orthogonalEdgeStyle;rounded=0;orthogonalLoop=1;jettySize=auto;html=1;exitX=0;exitY=1;exitDx=0;exitDy=0;" parent="1" source="r3X7H7_riUT9f5Sav2yK-76" target="r3X7H7_riUT9f5Sav2yK-80" edge="1">
          <mxGeometry relative="1" as="geometry">
            <mxPoint x="1470" y="280" as="targetPoint" />
          </mxGeometry>
        </mxCell>
        <mxCell id="r3X7H7_riUT9f5Sav2yK-81" style="edgeStyle=orthogonalEdgeStyle;rounded=0;orthogonalLoop=1;jettySize=auto;html=1;exitX=0.5;exitY=0;exitDx=0;exitDy=0;" parent="1" source="r3X7H7_riUT9f5Sav2yK-76" target="r3X7H7_riUT9f5Sav2yK-82" edge="1">
          <mxGeometry relative="1" as="geometry">
            <mxPoint x="1530" y="50" as="targetPoint" />
          </mxGeometry>
        </mxCell>
        <mxCell id="r3X7H7_riUT9f5Sav2yK-83" style="edgeStyle=orthogonalEdgeStyle;rounded=0;orthogonalLoop=1;jettySize=auto;html=1;exitX=0.5;exitY=1;exitDx=0;exitDy=0;" parent="1" source="r3X7H7_riUT9f5Sav2yK-76" target="r3X7H7_riUT9f5Sav2yK-84" edge="1">
          <mxGeometry relative="1" as="geometry">
            <mxPoint x="1540" y="230" as="targetPoint" />
          </mxGeometry>
        </mxCell>
        <mxCell id="r3X7H7_riUT9f5Sav2yK-76" value="Manutenção" style="rounded=0;whiteSpace=wrap;html=1;" parent="1" vertex="1">
          <mxGeometry x="1449" y="145" width="80" height="50" as="geometry" />
        </mxCell>
        <mxCell id="r3X7H7_riUT9f5Sav2yK-78" value="Correções de bugs e atualizações de segurança" style="ellipse;whiteSpace=wrap;html=1;" parent="1" vertex="1">
          <mxGeometry x="1400" y="-90" width="120" height="80" as="geometry" />
        </mxCell>
        <mxCell id="r3X7H7_riUT9f5Sav2yK-80" value="Melhorias no desempenho e na eficiência" style="ellipse;whiteSpace=wrap;html=1;" parent="1" vertex="1">
          <mxGeometry x="1440" y="340" width="120" height="80" as="geometry" />
        </mxCell>
        <mxCell id="r3X7H7_riUT9f5Sav2yK-82" value="Atualizações de funcionalidades com base no feedback do usuário" style="ellipse;whiteSpace=wrap;html=1;" parent="1" vertex="1">
          <mxGeometry x="1490" y="-20" width="120" height="80" as="geometry" />
        </mxCell>
        <mxCell id="r3X7H7_riUT9f5Sav2yK-84" value="Monitoramento constante para garantir a estabilidade" style="ellipse;whiteSpace=wrap;html=1;" parent="1" vertex="1">
          <mxGeometry x="1550" y="270" width="120" height="80" as="geometry" />
        </mxCell>
        <mxCell id="r3X7H7_riUT9f5Sav2yK-85" value="" style="shape=flexArrow;endArrow=classic;html=1;rounded=0;exitX=1;exitY=0.5;exitDx=0;exitDy=0;" parent="1" source="r3X7H7_riUT9f5Sav2yK-76" target="r3X7H7_riUT9f5Sav2yK-86" edge="1">
          <mxGeometry width="50" height="50" relative="1" as="geometry">
            <mxPoint x="1570" y="180" as="sourcePoint" />
            <mxPoint x="1620" y="130" as="targetPoint" />
          </mxGeometry>
        </mxCell>
        <mxCell id="r3X7H7_riUT9f5Sav2yK-87" style="edgeStyle=orthogonalEdgeStyle;rounded=0;orthogonalLoop=1;jettySize=auto;html=1;exitX=0.25;exitY=0;exitDx=0;exitDy=0;" parent="1" source="r3X7H7_riUT9f5Sav2yK-86" target="r3X7H7_riUT9f5Sav2yK-88" edge="1">
          <mxGeometry relative="1" as="geometry">
            <mxPoint x="1680" y="60" as="targetPoint" />
          </mxGeometry>
        </mxCell>
        <mxCell id="r3X7H7_riUT9f5Sav2yK-89" style="edgeStyle=orthogonalEdgeStyle;rounded=0;orthogonalLoop=1;jettySize=auto;html=1;exitX=0.5;exitY=0;exitDx=0;exitDy=0;" parent="1" source="r3X7H7_riUT9f5Sav2yK-86" target="r3X7H7_riUT9f5Sav2yK-90" edge="1">
          <mxGeometry relative="1" as="geometry">
            <mxPoint x="1730" y="60" as="targetPoint" />
          </mxGeometry>
        </mxCell>
        <mxCell id="r3X7H7_riUT9f5Sav2yK-91" style="edgeStyle=orthogonalEdgeStyle;rounded=0;orthogonalLoop=1;jettySize=auto;html=1;exitX=0.25;exitY=1;exitDx=0;exitDy=0;" parent="1" source="r3X7H7_riUT9f5Sav2yK-86" target="r3X7H7_riUT9f5Sav2yK-92" edge="1">
          <mxGeometry relative="1" as="geometry">
            <mxPoint x="1710" y="280" as="targetPoint" />
          </mxGeometry>
        </mxCell>
        <mxCell id="r3X7H7_riUT9f5Sav2yK-93" style="edgeStyle=orthogonalEdgeStyle;rounded=0;orthogonalLoop=1;jettySize=auto;html=1;exitX=0.75;exitY=1;exitDx=0;exitDy=0;" parent="1" source="r3X7H7_riUT9f5Sav2yK-86" target="r3X7H7_riUT9f5Sav2yK-94" edge="1">
          <mxGeometry relative="1" as="geometry">
            <mxPoint x="1790" y="250" as="targetPoint" />
          </mxGeometry>
        </mxCell>
        <mxCell id="r3X7H7_riUT9f5Sav2yK-86" value="Documentação" style="rounded=0;whiteSpace=wrap;html=1;" parent="1" vertex="1">
          <mxGeometry x="1640" y="145" width="100" height="50" as="geometry" />
        </mxCell>
        <mxCell id="r3X7H7_riUT9f5Sav2yK-88" value=" Criação de documentação técnica e do usuário" style="ellipse;whiteSpace=wrap;html=1;" parent="1" vertex="1">
          <mxGeometry x="1600" y="-80" width="120" height="80" as="geometry" />
        </mxCell>
        <mxCell id="r3X7H7_riUT9f5Sav2yK-90" value="Manter documentação atualizada conforme o software evolui" style="ellipse;whiteSpace=wrap;html=1;" parent="1" vertex="1">
          <mxGeometry x="1680" y="-10" width="130" height="80" as="geometry" />
        </mxCell>
        <mxCell id="r3X7H7_riUT9f5Sav2yK-92" value="Documentar procedimentos de solução de problemas" style="ellipse;whiteSpace=wrap;html=1;" parent="1" vertex="1">
          <mxGeometry x="1670" y="310" width="130" height="90" as="geometry" />
        </mxCell>
        <mxCell id="r3X7H7_riUT9f5Sav2yK-94" value="Documentar APIs para integração de terceiros" style="ellipse;whiteSpace=wrap;html=1;" parent="1" vertex="1">
          <mxGeometry x="1750" y="240" width="120" height="80" as="geometry" />
        </mxCell>
        <mxCell id="r3X7H7_riUT9f5Sav2yK-95" value="" style="shape=flexArrow;endArrow=classic;html=1;rounded=0;exitX=1;exitY=0.5;exitDx=0;exitDy=0;" parent="1" source="r3X7H7_riUT9f5Sav2yK-86" target="r3X7H7_riUT9f5Sav2yK-98" edge="1">
          <mxGeometry width="50" height="50" relative="1" as="geometry">
            <mxPoint x="1780" y="180" as="sourcePoint" />
            <mxPoint x="1830" y="130" as="targetPoint" />
          </mxGeometry>
        </mxCell>
        <mxCell id="r3X7H7_riUT9f5Sav2yK-99" style="edgeStyle=orthogonalEdgeStyle;rounded=0;orthogonalLoop=1;jettySize=auto;html=1;exitX=0.25;exitY=0;exitDx=0;exitDy=0;" parent="1" source="r3X7H7_riUT9f5Sav2yK-98" target="r3X7H7_riUT9f5Sav2yK-100" edge="1">
          <mxGeometry relative="1" as="geometry">
            <mxPoint x="1910" y="60" as="targetPoint" />
          </mxGeometry>
        </mxCell>
        <mxCell id="r3X7H7_riUT9f5Sav2yK-101" style="edgeStyle=orthogonalEdgeStyle;rounded=0;orthogonalLoop=1;jettySize=auto;html=1;exitX=0.25;exitY=1;exitDx=0;exitDy=0;" parent="1" source="r3X7H7_riUT9f5Sav2yK-98" target="r3X7H7_riUT9f5Sav2yK-102" edge="1">
          <mxGeometry relative="1" as="geometry">
            <mxPoint x="1930" y="260" as="targetPoint" />
          </mxGeometry>
        </mxCell>
        <mxCell id="r3X7H7_riUT9f5Sav2yK-103" style="edgeStyle=orthogonalEdgeStyle;rounded=0;orthogonalLoop=1;jettySize=auto;html=1;exitX=0.5;exitY=0;exitDx=0;exitDy=0;" parent="1" source="r3X7H7_riUT9f5Sav2yK-98" target="r3X7H7_riUT9f5Sav2yK-104" edge="1">
          <mxGeometry relative="1" as="geometry">
            <mxPoint x="2000" y="70" as="targetPoint" />
          </mxGeometry>
        </mxCell>
        <mxCell id="r3X7H7_riUT9f5Sav2yK-106" style="edgeStyle=orthogonalEdgeStyle;rounded=0;orthogonalLoop=1;jettySize=auto;html=1;exitX=0.75;exitY=1;exitDx=0;exitDy=0;" parent="1" source="r3X7H7_riUT9f5Sav2yK-98" target="r3X7H7_riUT9f5Sav2yK-107" edge="1">
          <mxGeometry relative="1" as="geometry">
            <mxPoint x="2000" y="280" as="targetPoint" />
          </mxGeometry>
        </mxCell>
        <mxCell id="r3X7H7_riUT9f5Sav2yK-98" value="Feedback do Cliente" style="rounded=0;whiteSpace=wrap;html=1;" parent="1" vertex="1">
          <mxGeometry x="1870" y="140" width="120" height="60" as="geometry" />
        </mxCell>
        <mxCell id="r3X7H7_riUT9f5Sav2yK-100" value="Coletar feedback do cliente durante todo o ciclo de vida" style="ellipse;whiteSpace=wrap;html=1;" parent="1" vertex="1">
          <mxGeometry x="1850" y="-20" width="120" height="80" as="geometry" />
        </mxCell>
        <mxCell id="r3X7H7_riUT9f5Sav2yK-102" value="Priorizar e incorporar sugestões e requisitos do cliente" style="ellipse;whiteSpace=wrap;html=1;" parent="1" vertex="1">
          <mxGeometry x="1845" y="310" width="130" height="80" as="geometry" />
        </mxCell>
        <mxCell id="r3X7H7_riUT9f5Sav2yK-104" value="Manter comunicação regular para alinhar expectativas" style="ellipse;whiteSpace=wrap;html=1;" parent="1" vertex="1">
          <mxGeometry x="1975" width="135" height="80" as="geometry" />
        </mxCell>
        <mxCell id="r3X7H7_riUT9f5Sav2yK-107" value="Garantir a satisfação do cliente" style="ellipse;whiteSpace=wrap;html=1;" parent="1" vertex="1">
          <mxGeometry x="1940" y="230" width="120" height="80" as="geometry" />
        </mxCell>
        <mxCell id="r3X7H7_riUT9f5Sav2yK-108" value="" style="shape=flexArrow;endArrow=classic;html=1;rounded=0;exitX=1;exitY=0.5;exitDx=0;exitDy=0;" parent="1" source="r3X7H7_riUT9f5Sav2yK-98" target="r3X7H7_riUT9f5Sav2yK-112" edge="1">
          <mxGeometry width="50" height="50" relative="1" as="geometry">
            <mxPoint x="2000" y="170" as="sourcePoint" />
            <mxPoint x="2050" y="120" as="targetPoint" />
          </mxGeometry>
        </mxCell>
        <mxCell id="r3X7H7_riUT9f5Sav2yK-113" style="edgeStyle=orthogonalEdgeStyle;rounded=0;orthogonalLoop=1;jettySize=auto;html=1;exitX=0.25;exitY=1;exitDx=0;exitDy=0;" parent="1" source="r3X7H7_riUT9f5Sav2yK-112" target="r3X7H7_riUT9f5Sav2yK-114" edge="1">
          <mxGeometry relative="1" as="geometry">
            <mxPoint x="2120" y="270" as="targetPoint" />
          </mxGeometry>
        </mxCell>
        <mxCell id="r3X7H7_riUT9f5Sav2yK-115" style="edgeStyle=orthogonalEdgeStyle;rounded=0;orthogonalLoop=1;jettySize=auto;html=1;exitX=0.25;exitY=0;exitDx=0;exitDy=0;" parent="1" source="r3X7H7_riUT9f5Sav2yK-112" target="r3X7H7_riUT9f5Sav2yK-116" edge="1">
          <mxGeometry relative="1" as="geometry">
            <mxPoint x="2160" y="70" as="targetPoint" />
          </mxGeometry>
        </mxCell>
        <mxCell id="r3X7H7_riUT9f5Sav2yK-117" style="edgeStyle=orthogonalEdgeStyle;rounded=0;orthogonalLoop=1;jettySize=auto;html=1;exitX=0.75;exitY=1;exitDx=0;exitDy=0;" parent="1" source="r3X7H7_riUT9f5Sav2yK-112" target="r3X7H7_riUT9f5Sav2yK-118" edge="1">
          <mxGeometry relative="1" as="geometry">
            <mxPoint x="2230" y="290" as="targetPoint" />
          </mxGeometry>
        </mxCell>
        <mxCell id="r3X7H7_riUT9f5Sav2yK-119" style="edgeStyle=orthogonalEdgeStyle;rounded=0;orthogonalLoop=1;jettySize=auto;html=1;exitX=0.75;exitY=0;exitDx=0;exitDy=0;" parent="1" source="r3X7H7_riUT9f5Sav2yK-112" target="r3X7H7_riUT9f5Sav2yK-120" edge="1">
          <mxGeometry relative="1" as="geometry">
            <mxPoint x="2260" y="80" as="targetPoint" />
          </mxGeometry>
        </mxCell>
        <mxCell id="r3X7H7_riUT9f5Sav2yK-112" value="Qualidade do Código" style="rounded=0;whiteSpace=wrap;html=1;" parent="1" vertex="1">
          <mxGeometry x="2110" y="140" width="102" height="60" as="geometry" />
        </mxCell>
        <mxCell id="r3X7H7_riUT9f5Sav2yK-114" value="Revisões de código para garantir boas práticas" style="ellipse;whiteSpace=wrap;html=1;" parent="1" vertex="1">
          <mxGeometry x="2050" y="280" width="120" height="80" as="geometry" />
        </mxCell>
        <mxCell id="r3X7H7_riUT9f5Sav2yK-116" value="Uso de ferramentas de análise estática para identificar problemas" style="ellipse;whiteSpace=wrap;html=1;" parent="1" vertex="1">
          <mxGeometry x="2120" y="-50" width="140" height="80" as="geometry" />
        </mxCell>
        <mxCell id="r3X7H7_riUT9f5Sav2yK-118" value="Padronização de código e convenções de nomenclatura" style="ellipse;whiteSpace=wrap;html=1;" parent="1" vertex="1">
          <mxGeometry x="2270" y="270" width="120" height="80" as="geometry" />
        </mxCell>
        <mxCell id="r3X7H7_riUT9f5Sav2yK-120" value="Melhoria contínua da qualidade do código" style="ellipse;whiteSpace=wrap;html=1;" parent="1" vertex="1">
          <mxGeometry x="2280" y="-30" width="120" height="80" as="geometry" />
        </mxCell>
      </root>
    </mxGraphModel>
  </diagram>
</mxfile>
